<svg width="15" height="16" viewBox="0 0 15 16" fill="none"
    xmlns="http://www.w3.org/2000/svg">
    <path d="M8.12507 11.1253C8.12507 11.0433 8.10892 10.9621 8.07755 10.8863C8.04617 10.8106 8.00018 10.7418 7.9422 10.6838C7.88422 10.6258 7.81539 10.5798 7.73964 10.5484C7.66388 10.517 7.58269 10.5009 7.5007 10.5009C7.41871 10.5009 7.33751 10.517 7.26176 10.5484C7.18601 10.5798 7.11718 10.6258 7.0592 10.6838C7.00122 10.7418 6.95523 10.8106 6.92385 10.8863C6.89247 10.9621 6.87632 11.0433 6.87632 11.1253C6.88145 11.2874 6.94945 11.4411 7.06593 11.5539C7.1824 11.6668 7.33821 11.7299 7.50039 11.7299C7.66256 11.7299 7.81837 11.6668 7.93485 11.5539C8.05132 11.4411 8.11932 11.2874 8.12445 11.1253H8.12507ZM7.96257 6.21715C7.94638 6.09944 7.88609 5.99227 7.79389 5.91732C7.70169 5.84237 7.58447 5.80522 7.46594 5.8134C7.3474 5.82158 7.23639 5.87447 7.15536 5.96137C7.07433 6.04827 7.02933 6.1627 7.02945 6.28152L7.03195 9.09465L7.03632 9.1584C7.05252 9.27611 7.11281 9.38328 7.20501 9.45823C7.2972 9.53318 7.41442 9.57032 7.53296 9.56214C7.6515 9.55397 7.76251 9.50108 7.84354 9.41418C7.92457 9.32727 7.96957 9.21284 7.96945 9.09402L7.96695 6.28027L7.96257 6.21715ZM8.73132 2.78715C8.1957 1.81965 6.80507 1.81965 6.27007 2.78715L1.42883 11.5378C0.910076 12.4753 1.5882 13.6253 2.66008 13.6253H12.3413C13.4126 13.6253 14.0907 12.4753 13.5719 11.5378L8.7307 2.78777L8.73132 2.78715ZM7.09007 3.2409C7.13059 3.16756 7.19002 3.10641 7.26218 3.06384C7.33434 3.02126 7.4166 2.9988 7.50039 2.9988C7.58417 2.9988 7.66643 3.02126 7.73859 3.06384C7.81076 3.10641 7.87019 3.16756 7.9107 3.2409L12.7513 11.9921C12.7908 12.0635 12.811 12.1439 12.8098 12.2254C12.8087 12.307 12.7864 12.3868 12.745 12.457C12.7036 12.5273 12.6446 12.5855 12.5738 12.626C12.503 12.6664 12.4229 12.6877 12.3413 12.6878H2.66008C2.57849 12.6878 2.49829 12.6666 2.42742 12.6262C2.35654 12.5858 2.29745 12.5276 2.25597 12.4573C2.2145 12.387 2.19208 12.3072 2.19093 12.2256C2.18979 12.144 2.20996 12.0635 2.24945 11.9921L7.09007 3.2409Z" fill="#FFCA41"/>
</svg>
