<svg width="15" height="15" viewBox="0 0 15 15" fill="none"
    xmlns="http://www.w3.org/2000/svg">
    <path d="M7.5 2.03125C4.47969 2.03125 2.03125 4.47969 2.03125 7.5C2.03125 10.5203 4.47969 12.9688 7.5 12.9688C10.5203 12.9688 12.9688 10.5203 12.9688 7.5C12.9688 4.47969 10.5203 2.03125 7.5 2.03125ZM1.25 7.5C1.25 4.04813 4.04813 1.25 7.5 1.25C10.9519 1.25 13.75 4.04813 13.75 7.5C13.75 10.9519 10.9519 13.75 7.5 13.75C4.04813 13.75 1.25 10.9519 1.25 7.5ZM7.5 6.25C7.71563 6.25 7.89063 6.425 7.89063 6.64063V10.5469C7.89063 10.6505 7.84947 10.7498 7.77622 10.8231C7.70296 10.8963 7.6036 10.9375 7.5 10.9375C7.3964 10.9375 7.29704 10.8963 7.22379 10.8231C7.15053 10.7498 7.10938 10.6505 7.10938 10.5469V6.64063C7.10938 6.425 7.28438 6.25 7.5 6.25ZM7.5 5.3125C7.66576 5.3125 7.82473 5.24665 7.94194 5.12944C8.05915 5.01223 8.125 4.85326 8.125 4.6875C8.125 4.52174 8.05915 4.36277 7.94194 4.24556C7.82473 4.12835 7.66576 4.0625 7.5 4.0625C7.33424 4.0625 7.17527 4.12835 7.05806 4.24556C6.94085 4.36277 6.875 4.52174 6.875 4.6875C6.875 4.85326 6.94085 5.01223 7.05806 5.12944C7.17527 5.24665 7.33424 5.3125 7.5 5.3125Z" fill="#002856"/>
</svg>

