<svg width="15" height="16" viewBox="0 0 15 16" fill="none" xmlns="http://www.w3.org/2000/svg">
<path d="M11.7187 14.35L10 12.475L10.725 11.75L11.7187 12.7438L13.9625 10.5L14.6875 11.3812L11.7187 14.35ZM6.875 9.875H8.125V11.125H6.875V9.875ZM6.875 4.875H8.125V8.625H6.875V4.875ZM7.5 1.75C10.9375 1.75 13.75 4.5625 13.75 8L13.7 8.81875C13.3187 8.69375 12.9187 8.625 12.4625 8.625L12.5 8C12.5 5.2375 10.2625 3 7.5 3C4.7375 3 2.5 5.2375 2.5 8C2.5 10.7625 4.7375 13 7.5 13C7.94375 13 8.36875 12.9437 8.78125 12.8375C8.83125 13.2625 8.95625 13.6625 9.1375 14.0312C8.6125 14.175 8.0625 14.25 7.5 14.25C4.04375 14.25 1.25 11.4375 1.25 8C1.25 4.5625 4.04375 1.75 7.5 1.75Z" fill="#459D7C"/>
</svg>
