<svg width="15" height="15" viewBox="0 0 15 15" fill="none"
    xmlns="http://www.w3.org/2000/svg">
    <path fill-rule="evenodd" clip-rule="evenodd" d="M8.06283 0.937891C9.56283 1.03164 10.9691 1.78164 12.0003 2.81289C13.2191 4.12539 13.8753 5.71914 13.8753 7.59414C13.8753 9.09414 13.3128 10.5004 12.3753 11.7191C11.4378 12.8441 10.1253 13.6879 8.62533 13.9691C7.12533 14.2504 5.62533 14.0629 4.31283 13.3129C3.00033 12.5629 1.96908 11.4379 1.40658 10.0316C0.844076 8.62539 0.750326 7.03164 1.21908 5.62539C1.68783 4.12539 2.53158 2.90664 3.84408 2.06289C5.06283 1.21914 6.56283 0.844141 8.06283 0.937891ZM8.53158 13.0316C9.75033 12.7504 10.8753 12.0941 11.7191 11.0629C12.4691 10.0316 12.9378 8.81289 12.8441 7.50039C12.8441 6.00039 12.2816 4.50039 11.2503 3.46914C10.3128 2.53164 9.18783 1.96914 7.87533 1.87539C6.65658 1.78164 5.34408 2.06289 4.31283 2.81289C3.28158 3.56289 2.53158 4.59414 2.15658 5.90664C1.78158 7.12539 1.78158 8.43789 2.34408 9.65664C2.90658 10.8754 3.75033 11.8129 4.87533 12.4691C6.00033 13.1254 7.31283 13.3129 8.53158 13.0316ZM7.40658 7.03164L9.65658 4.68789L10.3128 5.34414L8.06283 7.68789L10.3128 10.0316L9.65658 10.6879L7.40658 8.34414L5.15658 10.6879L4.50033 10.0316L6.75033 7.68789L4.50033 5.34414L5.15658 4.68789L7.40658 7.03164Z" fill="#D60000"/>
</svg>
